P3
50 30
255
66 196 224
66 196 224
66 196 224
66 196 224
66 196 224
66 196 224
66 196 224
66 196 224
66 196 224
66 196 224
66 196 224
66 196 224
66 196 224
66 196 224
66 196 224
66 196 224
66 196 224
66 196 224
66 196 224
66 196 224
66 196 224
66 196 224
66 196 224
66 196 224
66 196 224
66 196 224
66 196 224
66 196 224
66 196 224
66 196 224
66 196 224
66 196 224
66 196 224
66 196 224
66 196 224
66 196 224
66 196 224
66 196 224
66 196 224
66 196 224
66 196 224
66 196 224
66 196 224
66 196 224
66 196 224
66 196 224
66 196 224
66 196 224
66 196 224
66 196 224
66 196 224
66 196 224
66 196 224
240 240 240
240 240 240
240 240 240
240 240 240
240 240 240
66 196 224
66 196 224
66 196 224
66 196 224
66 196 224
66 196 224
66 196 224
66 196 224
66 196 224
66 196 224
66 196 224
66 196 224
66 196 224
66 196 224
66 196 224
66 196 224
66 196 224
66 196 224
66 196 224
66 196 224
66 196 224
66 196 224
66 196 224
66 196 224
66 196 224
66 196 224
66 196 224
66 196 224
66 196 224
66 196 224
66 196 224
66 196 224
66 196 224
66 196 224
66 196 224
66 196 224
66 196 224
66 196 224
66 196 224
66 196 224
66 196 224
66 196 224
66 196 224
66 196 224
240 240 240
240 240 240
240 240 240
240 240 240
240 240 240
240 240 240
240 240 240
66 196 224
66 196 224
66 196 224
66 196 224
66 196 224
66 196 224
66 196 224
66 196 224
66 196 224
66 196 224
66 196 224
66 196 224
66 196 224
66 196 224
66 196 224
66 196 224
66 196 224
66 196 224
66 196 224
66 196 224
66 196 224
66 196 224
66 196 224
66 196 224
66 196 224
66 196 224
66 196 224
66 196 224
66 196 224
66 196 224
66 196 224
66 196 224
66 196 224
66 196 224
66 196 224
66 196 224
66 196 224
66 196 224
66 196 224
66 196 224
66 196 224
66 196 224
240 240 240
240 240 240
240 240 240
240 240 240
240 240 240
240 240 240
240 240 240
240 240 240
240 240 240
66 196 224
66 196 224
66 196 224
66 196 224
66 196 224
66 196 224
66 196 224
66 196 224
66 196 224
66 196 224
66 196 224
66 196 224
66 196 224
66 196 224
66 196 224
66 196 224
66 196 224
66 196 224
66 196 224
66 196 224
66 196 224
66 196 224
66 196 224
66 196 224
66 196 224
66 196 224
66 196 224
66 196 224
66 196 224
66 196 224
66 196 224
66 196 224
66 196 224
66 196 224
66 196 224
66 196 224
66 196 224
66 196 224
66 196 224
66 196 224
66 196 224
240 240 240
240 240 240
240 240 240
240 240 240
240 240 240
240 240 240
240 240 240
240 240 240
240 240 240
66 196 224
66 196 224
66 196 224
66 196 224
66 196 224
66 196 224
66 196 224
66 196 224
66 196 224
66 196 224
66 196 224
66 196 224
66 196 224
66 196 224
66 196 224
66 196 224
66 196 224
66 196 224
66 196 224
66 196 224
66 196 224
66 196 224
66 196 224
66 196 224
66 196 224
66 196 224
66 196 224
66 196 224
66 196 224
66 196 224
66 196 224
66 196 224
66 196 224
66 196 224
66 196 224
66 196 224
66 196 224
66 196 224
66 196 224
66 196 224
66 196 224
240 240 240
240 240 240
240 240 240
240 240 240
240 240 240
240 240 240
240 240 240
240 240 240
240 240 240
66 196 224
66 196 224
66 196 224
66 196 224
66 196 224
66 196 224
66 196 224
66 196 224
66 196 224
66 196 224
66 196 224
66 196 224
66 196 224
66 196 224
220 123 56
220 123 56
220 123 56
220 123 56
66 196 224
66 196 224
66 196 224
66 196 224
66 196 224
66 196 224
66 196 224
66 196 224
66 196 224
66 196 224
66 196 224
66 196 224
66 196 224
66 196 224
66 196 224
66 196 224
240 240 240
240 240 240
240 240 240
66 196 224
66 196 224
66 196 224
66 196 224
240 240 240
240 240 240
240 240 240
240 240 240
240 240 240
240 240 240
240 240 240
240 240 240
240 240 240
66 196 224
66 196 224
66 196 224
66 196 224
66 196 224
66 196 224
66 196 224
66 196 224
66 196 224
66 196 224
66 196 224
66 196 224
220 123 56
220 123 56
66 196 224
66 196 224
66 196 224
66 196 224
220 123 56
220 123 56
66 196 224
66 196 224
66 196 224
66 196 224
66 196 224
66 196 224
66 196 224
66 196 224
66 196 224
66 196 224
66 196 224
66 196 224
66 196 224
240 240 240
240 240 240
240 240 240
240 240 240
240 240 240
66 196 224
66 196 224
66 196 224
240 240 240
240 240 240
240 240 240
240 240 240
240 240 240
240 240 240
240 240 240
240 240 240
240 240 240
66 196 224
66 196 224
66 196 224
66 196 224
66 196 224
66 196 224
66 196 224
66 196 224
66 196 224
66 196 224
220 123 56
220 123 56
66 196 224
66 196 224
66 196 224
66 196 224
66 196 224
66 196 224
66 196 224
66 196 224
220 123 56
220 123 56
66 196 224
66 196 224
66 196 224
66 196 224
66 196 224
66 196 224
66 196 224
66 196 224
66 196 224
66 196 224
240 240 240
240 240 240
240 240 240
240 240 240
240 240 240
240 240 240
240 240 240
66 196 224
66 196 224
66 196 224
240 240 240
240 240 240
240 240 240
240 240 240
240 240 240
240 240 240
240 240 240
66 196 224
66 196 224
66 196 224
66 196 224
66 196 224
66 196 224
66 196 224
66 196 224
66 196 224
220 123 56
220 123 56
66 196 224
66 196 224
66 196 224
66 196 224
66 196 224
66 196 224
66 196 224
66 196 224
66 196 224
66 196 224
66 196 224
66 196 224
220 123 56
66 196 224
66 196 224
66 196 224
66 196 224
66 196 224
66 196 224
66 196 224
66 196 224
66 196 224
240 240 240
240 240 240
240 240 240
240 240 240
240 240 240
240 240 240
240 240 240
66 196 224
66 196 224
66 196 224
66 196 224
240 240 240
240 240 240
240 240 240
240 240 240
240 240 240
66 196 224
66 196 224
66 196 224
66 196 224
66 196 224
66 196 224
66 196 224
66 196 224
220 123 56
220 123 56
66 196 224
66 196 224
66 196 224
66 196 224
66 196 224
66 196 224
66 196 224
66 196 224
66 196 224
66 196 224
66 196 224
66 196 224
66 196 224
66 196 224
66 196 224
220 123 56
220 123 56
66 196 224
66 196 224
66 196 224
66 196 224
66 196 224
66 196 224
66 196 224
240 240 240
240 240 240
240 240 240
240 240 240
240 240 240
240 240 240
240 240 240
66 196 224
66 196 224
66 196 224
66 196 224
66 196 224
66 196 224
66 196 224
66 196 224
66 196 224
66 196 224
66 196 224
66 196 224
66 196 224
66 196 224
66 196 224
220 123 56
220 123 56
66 196 224
66 196 224
66 196 224
66 196 224
66 196 224
66 196 224
66 196 224
66 196 224
66 196 224
66 196 224
66 196 224
66 196 224
66 196 224
66 196 224
66 196 224
66 196 224
66 196 224
66 196 224
66 196 224
220 123 56
220 123 56
66 196 224
66 196 224
66 196 224
66 196 224
66 196 224
66 196 224
240 240 240
240 240 240
240 240 240
240 240 240
240 240 240
66 196 224
66 196 224
66 196 224
66 196 224
66 196 224
66 196 224
66 196 224
66 196 224
66 196 224
66 196 224
66 196 224
66 196 224
66 196 224
66 196 224
220 123 56
220 123 56
66 196 224
66 196 224
66 196 224
66 196 224
66 196 224
66 196 224
66 196 224
66 196 224
66 196 224
66 196 224
66 196 224
66 196 224
66 196 224
66 196 224
66 196 224
66 196 224
66 196 224
66 196 224
66 196 224
66 196 224
66 196 224
66 196 224
66 196 224
220 123 56
220 123 56
66 196 224
66 196 224
66 196 224
66 196 224
66 196 224
240 240 240
240 240 240
240 240 240
66 196 224
66 196 224
66 196 224
66 196 224
66 196 224
66 196 224
66 196 224
66 196 224
66 196 224
66 196 224
66 196 224
66 196 224
66 196 224
220 123 56
220 123 56
220 123 56
220 123 56
220 123 56
220 123 56
220 123 56
220 123 56
220 123 56
220 123 56
220 123 56
220 123 56
220 123 56
220 123 56
220 123 56
220 123 56
220 123 56
220 123 56
220 123 56
220 123 56
220 123 56
220 123 56
220 123 56
220 123 56
220 123 56
220 123 56
220 123 56
220 123 56
220 123 56
220 123 56
220 123 56
66 196 224
66 196 224
66 196 224
66 196 224
66 196 224
66 196 224
66 196 224
66 196 224
66 196 224
66 196 224
66 196 224
66 196 224
66 196 224
66 196 224
66 196 224
66 196 224
66 196 224
66 196 224
66 196 224
66 196 224
66 196 224
66 196 224
66 196 224
66 196 224
220 182 56
66 196 224
66 196 224
66 196 224
66 196 224
66 196 224
66 196 224
66 196 224
66 196 224
66 196 224
66 196 224
66 196 224
66 196 224
66 196 224
66 196 224
66 196 224
66 196 224
66 196 224
66 196 224
66 196 224
220 182 56
66 196 224
66 196 224
66 196 224
66 196 224
66 196 224
66 196 224
66 196 224
66 196 224
66 196 224
66 196 224
66 196 224
66 196 224
66 196 224
66 196 224
66 196 224
66 196 224
66 196 224
66 196 224
66 196 224
66 196 224
66 196 224
66 196 224
66 196 224
66 196 224
66 196 224
66 196 224
66 196 224
66 196 224
66 196 224
220 182 56
66 196 224
66 196 224
66 196 224
66 196 224
66 196 224
66 196 224
66 196 224
61 121 255
61 121 255
61 121 255
61 121 255
61 121 255
66 196 224
66 196 224
66 196 224
66 196 224
66 196 224
66 196 224
66 196 224
220 182 56
66 196 224
66 196 224
66 196 224
66 196 224
66 196 224
66 196 224
66 196 224
66 196 224
66 196 224
66 196 224
66 196 224
66 196 224
66 196 224
66 196 224
66 196 224
66 196 224
66 196 224
66 196 224
66 196 224
66 196 224
66 196 224
66 196 224
66 196 224
66 196 224
66 196 224
66 196 224
66 196 224
66 196 224
66 196 224
220 182 56
66 196 224
66 196 224
66 196 224
66 196 224
66 196 224
66 196 224
61 121 255
61 121 255
66 196 224
66 196 224
66 196 224
61 121 255
61 121 255
66 196 224
66 196 224
66 196 224
66 196 224
66 196 224
66 196 224
220 182 56
66 196 224
66 196 224
66 196 224
66 196 224
66 196 224
66 196 224
66 196 224
66 196 224
66 196 224
66 196 224
66 196 224
66 196 224
66 196 224
66 196 224
66 196 224
66 196 224
66 196 224
66 196 224
66 196 224
66 196 224
66 196 224
66 196 224
66 196 224
66 196 224
66 196 224
66 196 224
66 196 224
66 196 224
66 196 224
220 182 56
66 196 224
66 196 224
66 196 224
66 196 224
66 196 224
61 121 255
61 121 255
66 196 224
66 196 224
66 196 224
66 196 224
66 196 224
61 121 255
61 121 255
66 196 224
66 196 224
66 196 224
66 196 224
66 196 224
220 182 56
66 196 224
66 196 224
66 196 224
66 196 224
66 196 224
66 196 224
66 196 224
66 196 224
66 196 224
66 196 224
66 196 224
66 196 224
66 196 224
66 196 224
66 196 224
66 196 224
66 196 224
66 196 224
66 196 224
66 196 224
66 196 224
66 196 224
66 196 224
66 196 224
66 196 224
66 196 224
66 196 224
66 196 224
66 196 224
220 182 56
66 196 224
66 196 224
66 196 224
66 196 224
66 196 224
61 121 255
66 196 224
66 196 224
66 196 224
66 196 224
66 196 224
66 196 224
66 196 224
61 121 255
66 196 224
66 196 224
66 196 224
66 196 224
66 196 224
220 182 56
66 196 224
66 196 224
66 196 224
66 196 224
66 196 224
66 196 224
66 196 224
66 196 224
66 196 224
66 196 224
66 196 224
66 196 224
66 196 224
66 196 224
66 196 224
66 196 224
66 196 224
66 196 224
66 196 224
66 196 224
66 196 224
66 196 224
66 196 224
66 196 224
66 196 224
66 196 224
66 196 224
66 196 224
66 196 224
220 182 56
66 196 224
66 196 224
66 196 224
66 196 224
66 196 224
61 121 255
66 196 224
66 196 224
66 196 224
66 196 224
66 196 224
66 196 224
66 196 224
61 121 255
66 196 224
66 196 224
66 196 224
66 196 224
66 196 224
220 182 56
66 196 224
66 196 224
66 196 224
66 196 224
66 196 224
66 196 224
66 196 224
66 196 224
66 196 224
66 196 224
66 196 224
66 196 224
66 196 224
66 196 224
66 196 224
66 196 224
66 196 224
66 196 224
66 196 224
66 196 224
66 196 224
66 196 224
66 196 224
66 196 224
66 196 224
66 196 224
66 196 224
66 196 224
66 196 224
220 182 56
66 196 224
66 196 224
66 196 224
66 196 224
66 196 224
61 121 255
66 196 224
66 196 224
66 196 224
66 196 224
66 196 224
66 196 224
66 196 224
61 121 255
66 196 224
66 196 224
66 196 224
66 196 224
66 196 224
220 182 56
66 196 224
66 196 224
66 196 224
66 196 224
66 196 224
66 196 224
66 196 224
66 196 224
66 196 224
66 196 224
66 196 224
66 196 224
66 196 224
66 196 224
66 196 224
66 196 224
66 196 224
66 196 224
66 196 224
66 196 224
66 196 224
66 196 224
66 196 224
66 196 224
66 196 224
66 196 224
66 196 224
66 196 224
66 196 224
220 182 56
66 196 224
66 196 224
66 196 224
66 196 224
66 196 224
61 121 255
61 121 255
66 196 224
66 196 224
66 196 224
66 196 224
66 196 224
61 121 255
61 121 255
66 196 224
66 196 224
66 196 224
66 196 224
66 196 224
220 182 56
66 196 224
66 196 224
66 196 224
66 196 224
66 196 224
66 196 224
66 196 224
66 196 224
66 196 224
66 196 224
66 196 224
66 196 224
66 196 224
66 196 224
66 196 224
66 196 224
66 196 224
66 196 224
66 196 224
66 196 224
66 196 224
66 196 224
66 196 224
66 196 224
66 196 224
66 196 224
66 196 224
66 196 224
66 196 224
220 182 56
66 196 224
66 196 224
66 196 224
66 196 224
66 196 224
66 196 224
61 121 255
61 121 255
66 196 224
66 196 224
66 196 224
61 121 255
61 121 255
66 196 224
66 196 224
66 196 224
66 196 224
66 196 224
66 196 224
220 182 56
66 196 224
66 196 224
66 196 224
66 196 224
66 196 224
66 196 224
66 196 224
66 196 224
66 196 224
66 196 224
66 196 224
66 196 224
66 196 224
66 196 224
66 196 224
66 196 224
66 196 224
66 196 224
66 196 224
66 196 224
66 196 224
66 196 224
66 196 224
66 196 224
66 196 224
66 196 224
66 196 224
66 196 224
66 196 224
220 182 56
66 196 224
66 196 224
66 196 224
66 196 224
66 196 224
66 196 224
66 196 224
61 121 255
61 121 255
61 121 255
61 121 255
61 121 255
66 196 224
66 196 224
66 196 224
66 196 224
66 196 224
66 196 224
66 196 224
220 182 56
66 196 224
66 196 224
66 196 224
66 196 224
66 196 224
66 196 224
66 196 224
66 196 224
66 196 224
66 196 224
66 196 224
66 196 224
66 196 224
66 196 224
66 196 224
66 196 224
66 196 224
66 196 224
66 196 224
66 196 224
66 196 224
66 196 224
66 196 224
66 196 224
66 196 224
66 196 224
66 196 224
66 196 224
66 196 224
220 182 56
66 196 224
66 196 224
66 196 224
66 196 224
66 196 224
66 196 224
66 196 224
66 196 224
66 196 224
66 196 224
66 196 224
66 196 224
66 196 224
66 196 224
66 196 224
66 196 224
66 196 224
66 196 224
66 196 224
220 182 56
66 196 224
66 196 224
66 196 224
66 196 224
66 196 224
66 196 224
66 196 224
66 196 224
66 196 224
66 196 224
66 196 224
66 196 224
66 196 224
66 196 224
66 196 224
66 196 224
66 196 224
66 196 224
66 196 224
66 196 224
66 196 224
66 196 224
66 196 224
66 196 224
66 196 224
66 196 224
66 196 224
66 196 224
66 196 224
220 182 56
66 196 224
66 196 224
66 196 224
66 196 224
66 196 224
66 196 224
66 196 224
66 196 224
66 196 224
66 196 224
66 196 224
66 196 224
66 196 224
66 196 224
66 196 224
66 196 224
66 196 224
66 196 224
66 196 224
220 182 56
66 196 224
66 196 224
66 196 224
66 196 224
66 196 224
66 196 224
66 196 224
66 196 224
66 196 224
66 196 224
66 196 224
66 196 224
66 196 224
66 196 224
76 220 56
76 220 56
76 220 56
76 220 56
76 220 56
76 220 56
76 220 56
76 220 56
76 220 56
76 220 56
76 220 56
76 220 56
76 220 56
76 220 56
76 220 56
220 182 56
220 182 56
220 182 56
220 182 56
220 182 56
220 182 56
220 182 56
220 182 56
220 182 56
220 182 56
220 182 56
220 182 56
220 182 56
220 182 56
220 182 56
220 182 56
220 182 56
220 182 56
220 182 56
220 182 56
220 182 56
76 220 56
76 220 56
76 220 56
76 220 56
76 220 56
76 220 56
76 220 56
76 220 56
76 220 56
76 220 56
76 220 56
76 220 56
76 220 56
76 220 56
76 220 56
76 220 56
76 220 56
76 220 56
76 220 56
76 220 56
76 220 56
76 220 56
76 220 56
76 220 56
76 220 56
76 220 56
76 220 56
76 220 56
76 220 56
76 220 56
76 220 56
76 220 56
76 220 56
76 220 56
76 220 56
76 220 56
76 220 56
76 220 56
76 220 56
76 220 56
76 220 56
76 220 56
76 220 56
76 220 56
76 220 56
76 220 56
76 220 56
76 220 56
76 220 56
76 220 56
76 220 56
76 220 56
76 220 56
76 220 56
76 220 56
76 220 56
76 220 56
76 220 56
76 220 56
76 220 56
76 220 56
76 220 56
76 220 56
76 220 56
76 220 56
76 220 56
76 220 56
76 220 56
76 220 56
76 220 56
76 220 56
76 220 56
76 220 56
76 220 56
76 220 56
76 220 56
76 220 56
76 220 56
76 220 56
76 220 56
76 220 56
76 220 56
76 220 56
76 220 56
76 220 56
76 220 56
76 220 56
76 220 56
76 220 56
76 220 56
76 220 56
76 220 56
76 220 56
76 220 56
76 220 56
76 220 56
76 220 56
76 220 56
76 220 56
76 220 56
76 220 56
76 220 56
76 220 56
76 220 56
76 220 56
76 220 56
76 220 56
76 220 56
76 220 56
76 220 56
76 220 56
76 220 56
76 220 56
76 220 56
76 220 56
76 220 56
76 220 56
76 220 56
76 220 56
76 220 56
76 220 56
76 220 56
76 220 56
76 220 56
76 220 56
76 220 56
76 220 56
76 220 56
76 220 56
76 220 56
76 220 56
76 220 56
76 220 56
76 220 56
76 220 56
76 220 56
76 220 56
76 220 56
76 220 56
76 220 56
76 220 56
76 220 56
76 220 56
76 220 56
76 220 56
76 220 56
76 220 56
76 220 56
76 220 56
76 220 56
76 220 56
76 220 56
76 220 56
76 220 56
76 220 56
76 220 56
76 220 56
76 220 56
76 220 56
76 220 56
76 220 56
76 220 56
76 220 56
76 220 56
76 220 56
76 220 56
76 220 56
76 220 56
76 220 56
76 220 56
76 220 56
76 220 56
76 220 56
76 220 56
76 220 56
76 220 56
76 220 56
76 220 56
76 220 56
76 220 56
76 220 56
76 220 56
76 220 56
76 220 56
76 220 56
76 220 56
76 220 56
76 220 56
76 220 56
76 220 56
76 220 56
76 220 56
76 220 56
76 220 56
76 220 56
76 220 56
76 220 56
76 220 56
76 220 56
76 220 56
76 220 56
76 220 56
76 220 56
76 220 56
76 220 56
76 220 56
76 220 56
76 220 56
76 220 56
76 220 56
76 220 56
76 220 56
76 220 56
76 220 56
